<svg preserveAspectRatio="none" width="100%" height="100%" overflow="visible" style="display: block;" viewBox="0 0 258.251 265.441" fill="none" xmlns="http://www.w3.org/2000/svg">
<path id="Vector" fill-rule="evenodd" clip-rule="evenodd" d="M138.349 0H119.902V83.9497L89.3059 6.11286L72.2026 13.2154L103.592 93.0687L44.3418 32.1694L31.2982 45.5763L88.0864 103.945L14.4932 70.8967L7.10783 88.2708L84.9781 123.24H0V142.201H84.978L7.10786 177.17L14.4932 194.544L88.0863 161.495L31.2982 219.864L44.3418 233.271L103.592 172.372L72.2026 252.226L89.3059 259.328L119.902 181.491V265.441H138.349V181.491L168.945 259.328L186.048 252.226L154.66 172.372L213.909 233.271L226.952 219.864L170.164 161.495L243.758 194.544L251.143 177.17L173.274 142.201H258.251V123.24H173.272L251.143 88.2708L243.758 70.8967L170.164 103.945L226.952 45.5762L213.909 32.1694L154.66 93.0685L186.048 13.2154L168.945 6.11286L138.349 83.9497V0Z" fill="url(#paint0_linear_0_7)"/>
<defs>
<linearGradient id="paint0_linear_0_7" x1="129.126" y1="0" x2="129.126" y2="265.441" gradientUnits="userSpaceOnUse">
<stop stop-color="#FD2D27"/>
<stop offset="1" stop-color="white"/>
</linearGradient>
</defs>
</svg>
