<svg preserveAspectRatio="none" width="100%" height="100%" overflow="visible" style="display: block;" viewBox="0 0 403.783 403.783" fill="none" xmlns="http://www.w3.org/2000/svg">
<path id="Vector" fill-rule="evenodd" clip-rule="evenodd" d="M216.312 0H187.47V127.702L139.632 9.29875L112.891 20.103L161.968 141.574L69.3297 48.9354L48.9356 69.3297L137.726 158.119L22.6605 107.846L11.1133 134.276L132.866 187.47H0V216.312H132.865L11.1133 269.507L22.6605 295.936L137.725 245.663L48.9356 334.453L69.3297 354.846L161.968 262.208L112.891 383.68L139.632 394.483L187.47 276.08V403.783H216.312V276.08L264.15 394.483L290.891 383.68L241.815 262.208L334.453 354.846L354.846 334.453L266.056 245.663L381.122 295.936L392.668 269.507L270.918 216.312H403.783V187.47H270.916L392.668 134.276L381.122 107.846L266.056 158.119L354.846 69.3295L334.453 48.9354L241.815 141.574L290.891 20.103L264.15 9.29875L216.312 127.702V0Z" fill="url(#paint0_linear_0_4)"/>
<defs>
<linearGradient id="paint0_linear_0_4" x1="201.891" y1="0" x2="201.891" y2="403.783" gradientUnits="userSpaceOnUse">
<stop stop-color="#0147FF"/>
<stop offset="1" stop-color="white"/>
</linearGradient>
</defs>
</svg>
