<svg width="20" height="20" viewBox="0 0 20 20" fill="none" xmlns="http://www.w3.org/2000/svg">
<path d="M12.5005 18.3337V15.0003C12.6164 13.9564 12.3171 12.9088 11.6671 12.0837C14.1671 12.0837 16.6671 10.417 16.6671 7.50033C16.7338 6.45866 16.4421 5.43366 15.8338 4.58366C16.0671 3.62533 16.0671 2.62533 15.8338 1.66699C15.8338 1.66699 15.0005 1.66699 13.3338 2.91699C11.1338 2.50033 8.86715 2.50033 6.66715 2.91699C5.00048 1.66699 4.16715 1.66699 4.16715 1.66699C3.91715 2.62533 3.91715 3.62533 4.16715 4.58366C3.56037 5.43023 3.26587 6.46098 3.33381 7.50033C3.33381 10.417 5.83381 12.0837 8.33381 12.0837C8.00881 12.492 7.76714 12.9587 7.62548 13.4587C7.48381 13.9587 7.44215 14.4837 7.50048 15.0003V18.3337" stroke="#CAD5E2" stroke-width="1.66667" stroke-linecap="round" stroke-linejoin="round"/>
<path d="M7.50033 14.9997C3.74199 16.6663 3.33366 13.333 1.66699 13.333" stroke="#CAD5E2" stroke-width="1.66667" stroke-linecap="round" stroke-linejoin="round"/>
</svg>
