<svg preserveAspectRatio="none" overflow="visible" style="display: block;" width="34.5914" height="34.5914" viewBox="0 0 34.5914 34.5914" fill="none" xmlns="http://www.w3.org/2000/svg">
<path id="Vector" fill-rule="evenodd" clip-rule="evenodd" d="M3.84349 0C2.82413 0 1.84653 0.404938 1.12573 1.12573C0.404938 1.84653 0 2.82413 0 3.84349V30.7479C0 31.7673 0.404938 32.7449 1.12573 33.4657C1.84653 34.1865 2.82413 34.5914 3.84349 34.5914H30.7479C31.7673 34.5914 32.7449 34.1865 33.4657 33.4657C34.1865 32.7449 34.5914 31.7673 34.5914 30.7479V3.84349C34.5914 2.82413 34.1865 1.84653 33.4657 1.12573C32.7449 0.404938 31.7673 0 30.7479 0H3.84349ZM26.8083 13.0602C27.1689 12.6998 27.3716 12.211 27.3718 11.7012C27.372 11.1914 27.1696 10.7025 26.8093 10.3419C26.4489 9.98127 25.9601 9.77859 25.4503 9.77841C24.9406 9.77823 24.4516 9.98056 24.091 10.3409L14.5784 19.8535L10.5023 15.7775C10.3239 15.599 10.1121 15.4573 9.87889 15.3606C9.64572 15.264 9.39579 15.2141 9.14338 15.2141C8.63359 15.2139 8.14462 15.4162 7.78402 15.7766C7.42343 16.1369 7.22074 16.6257 7.22056 17.1355C7.22038 17.6453 7.42272 18.1343 7.78306 18.4949L13.0832 23.795C13.2795 23.9914 13.5126 24.1472 13.7692 24.2535C14.0257 24.3598 14.3007 24.4145 14.5784 24.4145C14.856 24.4145 15.131 24.3598 15.3875 24.2535C15.6441 24.1472 15.8772 23.9914 16.0735 23.795L26.8083 13.0602Z" fill="#1E88FC"/>
</svg>
